<?xml version="1.0" encoding="utf-8"?>
<!-- Generator: Adobe Illustrator 22.0.0, SVG Export Plug-In . SVG Version: 6.00 Build 0)  -->
<svg version="1.1" id="Layer_1" xmlns="http://www.w3.org/2000/svg" xmlns:xlink="http://www.w3.org/1999/xlink" x="0px" y="0px"
	 width="160px" height="35.711px" viewBox="0 0 160 35.711" enable-background="new 0 0 160 35.711" xml:space="preserve">
<g>
	<path fill="#005781" d="M38.189,8.538h1.232c2.124,0,3.866-0.637,3.866-3.037c0-2.761-2.124-2.952-4.418-2.952h-0.68V8.538z
		 M38.189,17.65h-1.848V0.807h2.782c1.474-0.155,2.96,0.157,4.248,0.892c1.222,0.886,1.936,2.313,1.912,3.823
		c0.018,1.388-0.572,2.715-1.614,3.632c-1.158,0.832-2.571,1.231-3.993,1.126h-1.359L38.189,17.65z"/>
	<path fill="#005781" d="M57.135,4.375l-2.889,6.754h5.671L57.135,4.375z M53.461,12.871l-2.018,4.779h-2.124L57.114,0l7.583,17.65
		h-2.124l-1.975-4.779H53.461z"/>
	<polygon fill="#005781" points="70.134,0.085 83.26,13.848 83.26,0.807 85.129,0.807 85.129,18.415 72.003,4.673 72.003,17.65 
		70.134,17.65 	"/>
	<path fill="#005781" d="M107.049,9.176c0.236,2.129-0.374,4.265-1.699,5.947c-1.626,1.802-3.945,2.822-6.372,2.804
		c-4.809-0.084-8.639-4.051-8.554-8.86c0.084-4.809,4.051-8.639,8.86-8.554c2.76,0.048,5.334,1.403,6.937,3.651l-1.338,1.274
		c-1.986-3.241-6.223-4.258-9.463-2.272c-2.123,1.301-3.378,3.649-3.281,6.137c0.004,1.774,0.706,3.476,1.954,4.736
		c1.258,1.3,2.971,2.061,4.779,2.124c3.091,0.137,5.741-2.185,6.011-5.267h-4.821V9.154L107.049,9.176z"/>
	<path fill="#005781" d="M118.455,4.375l-2.889,6.754h5.735L118.455,4.375z M114.823,12.871l-2.124,4.779h-2.124L118.349,0
		l7.561,17.65h-2.124l-1.997-4.779H114.823z"/>
	<polygon fill="#005781" points="131.114,0.807 139.843,0.807 139.843,2.549 132.983,2.549 132.983,7.54 139.631,7.54 
		139.631,9.303 132.983,9.303 132.983,15.887 139.843,15.887 139.843,17.65 131.114,17.65 	"/>
	<path fill="#005781" d="M152.396,4.375l-2.889,6.754h5.777L152.396,4.375z M148.743,12.871l-1.954,4.779h-2.124L152.417,0
		L160,17.65h-2.124l-1.997-4.779H148.743z"/>
	<path fill="#62C6E9" d="M12.064,27.676c1.455,0.012,2.624,1.201,2.612,2.656c-0.012,1.455-1.201,2.624-2.656,2.612
		c-1.455-0.012-2.624-1.201-2.612-2.656c0-0.014,0-0.028,0.001-0.042C9.433,28.803,10.621,27.652,12.064,27.676
		C12.064,27.676,12.064,27.676,12.064,27.676"/>
	<path fill="#62C6E9" d="M19.711,27.782c1.443,0,2.613,1.169,2.613,2.612c0,0.014,0,0.029,0,0.043c0,1.455-1.179,2.634-2.634,2.634
		c-1.455,0-2.634-1.179-2.634-2.634l0,0c0.011-1.431,1.181-2.582,2.612-2.571c0.014,0,0.029,0,0.043,0.001"/>
	<path fill="#62C6E9" d="M12.17,19.859c1.455,0.012,2.624,1.201,2.612,2.656c-0.012,1.455-1.201,2.624-2.656,2.612
		c-1.455-0.012-2.624-1.201-2.612-2.656c0-0.014,0-0.028,0.001-0.042C9.539,20.987,10.727,19.836,12.17,19.859
		C12.17,19.859,12.17,19.859,12.17,19.859"/>
	<path fill="#62C6E9" d="M19.817,19.965c1.443,0,2.613,1.169,2.613,2.612c0,0.014,0,0.029,0,0.043c0,1.455-1.179,2.634-2.634,2.634
		c-1.455,0-2.634-1.179-2.634-2.634c0.023-1.443,1.212-2.593,2.654-2.57c0,0,0,0,0.001,0"/>
	<path fill="#62C6E9" d="M19.923,12.064c1.455,0.012,2.624,1.201,2.612,2.655c-0.012,1.455-1.201,2.624-2.655,2.612
		c-1.455-0.012-2.624-1.201-2.612-2.655c0-0.007,0-0.014,0-0.021C17.291,13.209,18.477,12.052,19.923,12.064"/>
	<path fill="#005781" d="M2.995,18.585c1.619-0.012,2.941,1.29,2.953,2.909c0,0.029,0,0.057-0.001,0.086
		c0,1.642-1.331,2.974-2.974,2.974S0,23.222,0,21.58c0.023-1.63,1.364-2.933,2.994-2.91c0,0,0,0,0.001,0"/>
	<path fill="#005781" d="M3.122,9.749c1.619-0.012,2.941,1.291,2.953,2.909c0,0.021,0,0.043,0,0.064
		c0.012,1.654-1.32,3.004-2.974,3.016s-3.004-1.32-3.016-2.974s1.32-3.004,2.974-3.016C3.08,9.749,3.101,9.749,3.122,9.749"/>
	<path fill="#005781" d="M11.788,9.77c1.642,0.012,2.964,1.353,2.952,2.995c-0.012,1.642-1.353,2.964-2.995,2.952
		c-1.642-0.012-2.964-1.353-2.952-2.995c0-0.007,0-0.014,0-0.021c0-1.619,1.312-2.931,2.93-2.932
		C11.745,9.77,11.767,9.77,11.788,9.77"/>
	<path fill="#005781" d="M3.25,0.807c1.642,0.024,2.954,1.374,2.93,3.016c-0.024,1.642-1.374,2.954-3.016,2.93
		C1.521,6.73,0.209,5.379,0.233,3.737c0-0.007,0-0.014,0-0.02C0.268,2.083,1.616,0.783,3.25,0.807"/>
	<path fill="#005781" d="M11.894,0.935c1.642,0,2.974,1.331,2.974,2.974c0,0.007,0,0.014,0,0.021
		c-0.046,1.641-1.396,2.943-3.037,2.931c-1.642-0.023-2.954-1.373-2.931-3.015c0,0,0,0,0-0.001c0.011-1.619,1.333-2.922,2.952-2.91
		C11.866,0.934,11.88,0.934,11.894,0.935"/>
	<path fill="#005781" d="M60.576,25.084h1.508c1.117-0.084,2.225,0.257,3.101,0.956c0.867,0.767,1.35,1.88,1.317,3.037
		c0.022,1.126-0.452,2.206-1.296,2.952c-0.871,0.743-2.004,1.102-3.143,0.998h-1.487L60.576,25.084z M62.105,32.221
		c0.914,0.08,1.82-0.219,2.506-0.828c1.302-1.218,1.37-3.261,0.152-4.563c-0.049-0.052-0.1-0.103-0.152-0.152
		c-0.69-0.567-1.574-0.841-2.464-0.765h-0.637v6.372L62.105,32.221z"/>
	<path fill="#005781" d="M69.539,26.125c0.063,0.334-0.157,0.656-0.491,0.719c-0.334,0.063-0.656-0.157-0.719-0.492
		c-0.014-0.075-0.014-0.152,0-0.228c0.063-0.334,0.385-0.554,0.719-0.491C69.297,25.68,69.492,25.876,69.539,26.125z M69.348,32.943
		H68.52v-4.949h0.828V32.943z"/>
	<path fill="#005781" d="M76.209,32.709c0.091,0.746-0.09,1.5-0.51,2.124c-0.466,0.574-1.173,0.896-1.912,0.871
		c-1.252,0.094-2.342-0.845-2.436-2.096c-0.004-0.059-0.007-0.117-0.006-0.176h0.85c-0.014,0.809,0.631,1.477,1.44,1.49
		c0.044,0.001,0.088,0,0.132-0.004c1.317,0,1.593-0.956,1.593-2.124V32.2l0,0c-0.41,0.533-1.048,0.84-1.72,0.828
		c-1.337-0.032-2.395-1.141-2.363-2.478c0.001-0.038,0.003-0.075,0.005-0.113c-0.094-1.357,0.93-2.534,2.287-2.629
		c0.038-0.003,0.075-0.004,0.113-0.005c0.657,0.002,1.277,0.307,1.678,0.828l0,0V27.93h0.85V32.709z M72.131,30.415
		c-0.095,0.945,0.594,1.789,1.539,1.884c0.025,0.003,0.05,0.005,0.075,0.006c0.927-0.006,1.673-0.762,1.668-1.688
		c0-0.06-0.004-0.121-0.011-0.181c0.082-0.911-0.59-1.717-1.501-1.799c-0.052-0.005-0.104-0.007-0.155-0.007
		c-0.937,0.046-1.66,0.843-1.614,1.78C72.131,30.413,72.131,30.414,72.131,30.415z"/>
	<path fill="#005781" d="M79.65,26.125c0,0.328-0.266,0.595-0.595,0.595s-0.595-0.266-0.595-0.595c0-0.328,0.266-0.595,0.595-0.595
		l0,0C79.379,25.541,79.639,25.801,79.65,26.125z M79.48,32.943h-0.85v-4.949h0.85V32.943z"/>
	<path fill="#005781" d="M82.751,32.943h-0.85v-4.248h-0.51v-0.786h0.51v-1.784h0.85v1.784h0.892v0.786h-0.892V32.943z"/>
	<path fill="#005781" d="M89.547,32.943h-0.85v-0.68l0,0c-0.406,0.527-1.034,0.833-1.699,0.828c-1.349-0.032-2.416-1.151-2.384-2.5
		c0.001-0.038,0.003-0.075,0.005-0.113c-0.106-1.333,0.889-2.499,2.222-2.605c0.052-0.004,0.104-0.007,0.156-0.007
		c0.665-0.005,1.294,0.302,1.699,0.828l0,0v-0.701h0.85V32.943z M85.469,30.415c-0.095,0.945,0.594,1.789,1.539,1.884
		c0.025,0.003,0.05,0.005,0.075,0.006c0.927-0.006,1.673-0.762,1.668-1.688c0-0.06-0.004-0.121-0.011-0.181
		c0.082-0.911-0.59-1.717-1.501-1.799c-0.052-0.005-0.104-0.007-0.155-0.007c-0.937,0.046-1.66,0.843-1.614,1.78
		C85.469,30.413,85.469,30.414,85.469,30.415z"/>
	<path fill="#005781" d="M92.542,32.943h-0.828v-8.687h0.828V32.943z"/>
	<path fill="#005781" d="M99.806,30.692l-0.956,2.251h-0.913l3.674-8.305l3.568,8.305h-0.977l-0.935-2.251H99.806z M101.527,26.699
		l-1.359,3.165h2.697L101.527,26.699z"/>
	<path fill="#005781" d="M111.085,32.709c0.091,0.746-0.09,1.5-0.51,2.124c-0.47,0.569-1.174,0.89-1.912,0.871
		c-1.252,0.094-2.342-0.845-2.436-2.096c-0.004-0.059-0.007-0.117-0.006-0.176h0.85c-0.027,0.797,0.598,1.465,1.395,1.492
		c0.059,0.002,0.118,0,0.176-0.005c1.317,0,1.593-0.956,1.593-2.124V32.2l0,0c-0.42,0.52-1.052,0.824-1.72,0.828
		c-1.337-0.032-2.395-1.141-2.363-2.478c0.001-0.038,0.003-0.075,0.005-0.113c-0.094-1.357,0.93-2.534,2.287-2.629
		c0.038-0.003,0.075-0.004,0.113-0.005c0.657,0.002,1.277,0.307,1.678,0.828l0,0V27.93h0.85V32.709z M107.007,30.415
		c-0.146,0.903,0.468,1.754,1.371,1.9c0.903,0.146,1.754-0.468,1.9-1.371c0.028-0.175,0.028-0.354,0-0.529
		c0.082-0.911-0.59-1.717-1.501-1.799c-0.052-0.005-0.104-0.007-0.155-0.007c-0.926,0.032-1.651,0.81-1.618,1.736
		C107.003,30.369,107.005,30.392,107.007,30.415z"/>
	<path fill="#005781" d="M113.761,30.649c-0.024,0.891,0.68,1.633,1.571,1.656c0.021,0.001,0.043,0.001,0.064,0
		c0.656-0.024,1.241-0.42,1.508-1.02l0.701,0.404c-0.421,0.869-1.307,1.416-2.273,1.402c-1.314,0.027-2.4-1.016-2.427-2.33
		c-0.001-0.073,0-0.146,0.006-0.219c-0.141-1.33,0.823-2.522,2.153-2.663c0.082-0.009,0.165-0.013,0.247-0.013
		c1.325,0.018,2.385,1.107,2.367,2.433c-0.002,0.117-0.012,0.234-0.03,0.35L113.761,30.649z M116.777,29.927
		c-0.12-0.724-0.732-1.265-1.466-1.296c-0.744,0.027-1.37,0.565-1.508,1.296H116.777z"/>
	<path fill="#005781" d="M120.281,28.589L120.281,28.589c0.315-0.462,0.843-0.734,1.402-0.722c1.381,0,1.699,0.977,1.699,2.124
		v2.931h-0.85v-2.782c0-0.807,0-1.529-1.041-1.529c-1.041,0-1.232,1.083-1.232,1.975v2.336h-0.85v-4.949h0.85L120.281,28.589z"/>
	<path fill="#005781" d="M129.308,29.481L129.308,29.481c-0.347-0.52-0.926-0.837-1.55-0.85c-0.985,0.023-1.765,0.84-1.742,1.825
		c0,0.008,0,0.015,0.001,0.023c-0.047,0.961,0.693,1.778,1.654,1.825c0.015,0.001,0.03,0.001,0.045,0.002
		c0.647,0.008,1.255-0.311,1.614-0.85l0,0v1.126c-0.46,0.325-1.008,0.503-1.572,0.51c-1.419,0.035-2.598-1.086-2.633-2.505
		c-0.001-0.036-0.001-0.072,0-0.107c0-1.443,1.169-2.613,2.612-2.613c0.014,0,0.029,0,0.043,0c0.548,0.002,1.082,0.173,1.529,0.489
		L129.308,29.481z"/>
	<path fill="#005781" d="M130.455,27.994h0.977l1.742,3.547l1.593-3.547h0.977l-3.653,7.71h-0.977l1.614-3.25L130.455,27.994z"/>
</g>
</svg>
